<svg width="2053" height="539" viewBox="0 0 2053 539" fill="none" xmlns="http://www.w3.org/2000/svg">
<path d="M1238.65 414.091V46.4688H1304.92V414.091H1238.65Z" fill="white"/>
<path fill-rule="evenodd" clip-rule="evenodd" d="M1011.31 402.7C1031.68 414.436 1055.67 420.304 1083.28 420.304C1115.04 420.304 1141.96 412.537 1164.06 397.004C1186.48 381.483 1201.49 360.275 1209.09 333.38H1139.79C1135.79 343.48 1129.38 351.571 1120.56 357.653C1110.9 364.211 1098.64 367.491 1083.8 367.491C1064.13 367.491 1048.25 361.45 1036.17 349.368C1024.43 336.942 1017.87 318.647 1016.49 294.484H1212.73V279.469C1212.73 248.402 1207.38 221.823 1196.68 199.731C1185.98 177.639 1170.61 160.725 1150.59 148.989C1130.92 137.252 1107.96 131.384 1081.73 131.384C1054.81 131.384 1031.16 137.425 1010.79 149.506C990.774 161.588 975.24 178.502 964.194 200.249C953.149 221.65 947.626 246.849 947.626 275.844C947.626 304.84 953.149 330.211 964.194 351.957C975.24 373.704 990.946 390.618 1011.31 402.7ZM1144.38 249.955H1016.49C1019.25 228.554 1026.33 212.157 1037.72 200.766C1049.46 189.375 1064.13 183.68 1081.73 183.68C1099.33 183.68 1113.83 189.203 1125.22 200.249C1136.61 210.949 1143 227.518 1144.38 249.955Z" fill="white"/>
<path d="M669.808 137.598L770.774 414.091H849.476L950.443 137.598H880.543L810.125 347.297L739.708 137.598H669.808Z" fill="white"/>
<path fill-rule="evenodd" clip-rule="evenodd" d="M1394.67 402.7C1415.38 414.436 1439.37 420.304 1466.64 420.304C1493.91 420.304 1517.73 414.436 1538.09 402.7C1558.46 390.618 1574.16 373.704 1585.21 351.957C1596.6 330.211 1602.3 304.84 1602.3 275.844C1602.3 246.503 1596.6 221.132 1585.21 199.731C1574.16 177.984 1558.46 161.243 1538.09 149.506C1517.73 137.425 1493.91 131.384 1466.64 131.384C1439.37 131.384 1415.38 137.425 1394.67 149.506C1374.3 161.243 1358.42 177.984 1347.03 199.731C1335.99 221.132 1330.46 246.503 1330.46 275.844C1330.46 304.84 1335.99 330.211 1347.03 351.957C1358.42 373.704 1374.3 390.618 1394.67 402.7ZM1515.83 342.637C1504.44 358.516 1488.04 366.455 1466.64 366.455C1445.24 366.455 1428.67 358.516 1416.93 342.637C1405.2 326.759 1399.33 304.494 1399.33 275.844C1399.33 247.539 1405.2 225.447 1416.93 209.569C1428.67 193.345 1445.24 185.233 1466.64 185.233C1488.04 185.233 1504.44 193.345 1515.83 209.569C1527.56 225.447 1533.43 247.539 1533.43 275.844C1533.43 304.494 1527.56 326.759 1515.83 342.637Z" fill="white"/>
<path d="M1626.81 137.598H1688.94L1690.73 190.612C1695.14 175.448 1701.27 163.817 1709.13 155.72C1720.87 143.638 1736.75 137.598 1756.77 137.598H1782.14V194.553H1756.25C1742.1 194.553 1730.36 196.624 1721.04 200.766C1711.72 204.909 1704.64 211.467 1699.81 220.442C1695.32 229.072 1693.08 240.463 1693.08 254.615V414.091H1626.81V137.598Z" fill="white"/>
<path fill-rule="evenodd" clip-rule="evenodd" d="M1838.36 401.146C1855.28 413.918 1876.33 420.304 1901.53 420.304C1917.41 420.304 1931.39 417.888 1943.47 413.055C1955.9 407.877 1966.25 400.628 1974.54 391.308C1979.72 385.71 1984.1 379.428 1987.66 372.46L1989.04 414.091H2052.21V137.598H1985.93V176.949C1978.34 162.451 1967.29 151.232 1952.79 143.293C1938.64 135.354 1921.55 131.384 1901.53 131.384C1876.33 131.384 1855.1 137.943 1837.85 151.06C1820.93 163.832 1808.16 181.091 1799.53 202.837C1791.25 224.584 1787.1 248.92 1787.1 275.844C1787.1 302.768 1791.42 327.277 1800.05 349.368C1808.68 371.115 1821.45 388.374 1838.36 401.146ZM1959.01 354.546C1950.03 362.485 1937.6 366.455 1921.73 366.455C1906.88 366.455 1894.46 362.313 1884.45 354.028C1874.78 345.744 1867.53 334.698 1862.7 320.891C1858.21 306.738 1855.97 291.723 1855.97 275.844C1855.97 258.93 1858.21 243.742 1862.7 230.28C1867.53 216.472 1874.78 205.599 1884.45 197.66C1894.46 189.375 1906.88 185.233 1921.73 185.233C1937.26 185.233 1949.69 189.203 1959.01 197.142C1968.33 205.081 1975.06 215.955 1979.2 229.762C1983.69 243.224 1985.93 258.585 1985.93 275.844C1985.93 292.068 1983.69 307.256 1979.2 321.408C1975.06 335.216 1968.33 346.262 1959.01 354.546Z" fill="white"/>
<path fill-rule="evenodd" clip-rule="evenodd" d="M75.5561 172.707C75.5561 172.707 9.657 66.2299 83.2325 29.0559C129.91 8.56847 177.189 23.2657 201.777 35.9583C204.544 37.2176 206.978 38.3573 209.16 39.3792C225.635 47.0936 227.791 48.1032 250.776 43.2601C307.628 30.2978 366.422 37.0379 408.699 54.7159C461.776 3.75056 580.886 1.35712 518.206 131.011C518.206 131.011 529.978 144.282 537.377 155.1C539.353 159.518 536.652 163.532 533.718 167.892C530.354 172.893 526.683 178.349 529.408 185.391C533.477 195.904 539.88 206.196 547.236 218.019C556.506 232.917 567.289 250.247 576.819 273.517C593.912 315.255 569.852 379.817 546.746 417.286C507.17 478.617 441.632 454.188 387.867 427.756C380.268 424.02 371.071 427.434 367.876 435.276L339.253 505.532C334.713 516.674 322.986 523.191 311.418 519.884C229.92 496.59 91.3994 414.408 19.9216 238.549C14.6588 225.6 21.5812 210.979 33.961 204.491C47.7125 197.284 64.5779 186.5 75.5561 172.707ZM539.448 128.071C543.356 132.809 548.307 139.045 552.305 144.89L553.223 146.232L553.887 147.717C557.604 156.029 556.09 163.719 553.879 168.983C552.293 172.759 549.792 176.43 548.551 178.251C548.381 178.501 548.235 178.716 548.118 178.891C547.623 179.634 547.26 180.216 546.997 180.658C550.435 188.887 555.629 197.248 562.667 208.579C563.59 210.065 564.545 211.602 565.531 213.197C574.259 227.301 584.437 244.398 593.556 266.663C604.292 292.879 601.505 324.058 594.361 351.551C587.088 379.541 574.521 406.702 562.14 426.779L562.043 426.936L561.943 427.092C550.451 444.9 536.478 457.331 520.503 464.869C504.616 472.366 487.86 474.5 471.504 473.483C440.809 471.574 409.471 458.364 383.198 445.604L356.002 512.355C348.386 531.048 327.89 543.402 306.448 537.274C220.395 512.678 77.0296 427.085 3.167 245.358C-6.2629 222.158 6.59012 198.417 25.5656 188.472C35.0934 183.479 45.22 177.138 53.3426 169.871C52.3177 167.869 51.2194 165.658 50.0792 163.262C44.7212 152.007 38.2231 136.253 34.1887 118.922C30.1965 101.771 28.2771 81.6466 33.5509 62.4037C39.0391 42.3788 52.0161 24.565 75.0767 12.9136L75.5146 12.6924L75.9638 12.4952C129.516 -11.0096 182.663 5.84381 209.666 19.6781C212.743 21.0814 215.09 22.1829 217.101 23.1271C219.314 24.1657 221.12 25.0138 223.048 25.8635C226.293 27.2944 227.781 27.7458 228.812 27.9448C230.723 28.3135 233.535 28.4053 246.906 25.5928C302.784 12.8848 360.503 17.9506 405.066 33.919C418.967 22.9047 435.315 14.5969 451.755 9.59954C471.633 3.55716 493.515 1.80998 512.424 7.9224C532.455 14.3976 548.291 29.6157 552.787 53.938C556.531 74.1955 552.069 98.9339 539.448 128.071Z" fill="white"/>
<path d="M428.038 61.8884C439.353 51.688 475.673 33.2698 503.3 42.9953C468.18 44.6433 459.381 78.8821 428.038 61.8884Z" fill="white"/>
<path d="M77.2255 243.941C71.7065 225.173 57.7971 206.088 34.4479 225.118C82.1465 349.808 166.642 416.281 166.642 416.281C121.653 369.064 92.3444 288.805 77.2255 243.941Z" fill="white"/>
<path d="M274.665 329.624C297.944 350.053 341.699 351.418 407.57 348.787C377.621 365.476 328.804 364.926 328.804 364.926C350.853 379.854 396.129 397.238 442.771 399.719C489.413 402.2 523.65 389.795 523.579 347.657C523.579 303.699 447.148 254.866 274.665 329.624Z" fill="white"/>
<path d="M565.802 302.643C556.488 309.157 545.949 325.719 542.723 346.04C528.718 428.749 572.454 346.927 565.802 302.643Z" fill="white"/>
<path d="M395.926 408.151C432.137 427.389 504.314 460.028 532.972 405.292L530.823 403.061C529.732 401.928 528.04 401.633 526.612 402.294C495.886 416.52 449.481 421.439 395.926 408.151Z" fill="white"/>
<path d="M423.942 192.174C432.429 215.599 443.002 242.641 452.303 260.095C457.488 269.825 467.506 275.387 478.459 276.654C526.008 282.153 540.914 277.738 550.282 273.467C554.513 271.538 556.809 266.764 554.222 262.901C554.222 262.901 517.332 201.477 499.093 177.532C489.092 162.899 477.225 147.771 509.156 148.344C420.659 56.7741 339.622 42.0928 245.425 62.7558C227.107 66.3553 217.109 63.7157 198.152 54.1968C177.914 43.9582 149.117 32.3597 111.923 38.9184C138.388 56.2054 160.32 83.3861 175.65 107.1C194.89 136.862 227.511 158.722 262.852 156.093L355.208 149.225C384.026 147.081 414.099 165.005 423.942 192.174Z" fill="white"/>
<path d="M299 171.65L228.971 175.86C94.0273 185.896 161.581 336.906 326.079 291.787C415.231 267.334 429.525 251.138 410.633 207.62C407.743 202.418 401.985 199.462 396.039 199.692C351.984 201.392 327.02 190.751 317.369 180.867C312.444 175.823 306.037 171.226 299 171.65Z" fill="white"/>
</svg>
