<svg width="2053" height="507" viewBox="0 0 2053 507" fill="none" xmlns="http://www.w3.org/2000/svg">
<path d="M1231.17 398.849V27.8486H1298.06V398.849H1231.17Z" fill="#110F18"/>
<path fill-rule="evenodd" clip-rule="evenodd" d="M1001.75 387.353C1022.3 399.197 1046.51 405.119 1074.38 405.119C1106.43 405.119 1133.6 397.281 1155.9 381.605C1178.52 365.941 1193.67 344.538 1201.34 317.397H1131.4C1127.37 327.59 1120.9 335.755 1112 341.893C1102.25 348.511 1089.88 351.821 1074.9 351.821C1055.05 351.821 1039.02 345.725 1026.83 333.532C1014.98 320.991 1008.37 302.528 1006.97 278.143H1205.01V262.99C1205.01 231.638 1199.61 204.814 1188.82 182.519C1178.02 160.224 1162.51 143.155 1142.31 131.311C1122.45 119.467 1099.29 113.545 1072.81 113.545C1045.64 113.545 1021.78 119.641 1001.22 131.833C981.02 144.026 965.344 161.095 954.197 183.042C943.049 204.64 937.475 230.07 937.475 259.332C937.475 288.594 943.049 314.198 954.197 336.145C965.344 358.091 981.194 375.161 1001.75 387.353ZM1136.04 233.205H1006.97C1009.76 211.607 1016.9 195.06 1028.4 183.564C1040.24 172.069 1055.05 166.321 1072.81 166.321C1090.58 166.321 1105.21 171.894 1116.71 183.042C1128.2 193.841 1134.65 210.562 1136.04 233.205Z" fill="#110F18"/>
<path d="M657.104 119.815L758.999 398.849H838.424L940.319 119.815H869.776L798.712 331.442L727.647 119.815H657.104Z" fill="#110F18"/>
<path fill-rule="evenodd" clip-rule="evenodd" d="M1388.63 387.353C1409.53 399.197 1433.74 405.119 1461.26 405.119C1488.78 405.119 1512.82 399.197 1533.37 387.353C1553.92 375.161 1569.77 358.091 1580.92 336.145C1592.42 314.198 1598.16 288.594 1598.16 259.332C1598.16 229.722 1592.42 204.117 1580.92 182.519C1569.77 160.573 1553.92 143.677 1533.37 131.833C1512.82 119.641 1488.78 113.545 1461.26 113.545C1433.74 113.545 1409.53 119.641 1388.63 131.833C1368.07 143.677 1352.05 160.573 1340.55 182.519C1329.41 204.117 1323.83 229.722 1323.83 259.332C1323.83 288.594 1329.41 314.198 1340.55 336.145C1352.05 358.091 1368.07 375.161 1388.63 387.353ZM1510.9 326.739C1499.4 342.763 1482.86 350.776 1461.26 350.776C1439.66 350.776 1422.94 342.763 1411.1 326.739C1399.25 310.715 1393.33 288.246 1393.33 259.332C1393.33 230.767 1399.25 208.472 1411.1 192.447C1422.94 176.075 1439.66 167.888 1461.26 167.888C1482.86 167.888 1499.4 176.075 1510.9 192.447C1522.74 208.472 1528.67 230.767 1528.67 259.332C1528.67 288.246 1522.74 310.715 1510.9 326.739Z" fill="#110F18"/>
<path d="M1622.9 119.815H1685.6L1687.41 173.317C1691.86 158.014 1698.05 146.276 1705.98 138.104C1717.82 125.911 1733.85 119.815 1754.05 119.815H1779.66V177.294H1753.53C1739.25 177.294 1727.4 179.384 1718 183.564C1708.59 187.745 1701.45 194.363 1696.57 203.421C1692.05 212.13 1689.78 223.625 1689.78 237.908V398.849H1622.9V119.815Z" fill="#110F18"/>
<path fill-rule="evenodd" clip-rule="evenodd" d="M1836.4 385.786C1853.47 398.675 1874.72 405.119 1900.15 405.119C1916.17 405.119 1930.28 402.681 1942.47 397.804C1955.01 392.579 1965.47 385.263 1973.83 375.857C1979.06 370.208 1983.47 363.867 1987.07 356.835L1988.46 398.849H2052.21V119.815H1985.32V159.528C1977.66 144.897 1966.51 133.575 1951.88 125.563C1937.6 117.551 1920.35 113.545 1900.15 113.545C1874.72 113.545 1853.29 120.163 1835.88 133.401C1818.81 146.29 1805.92 163.708 1797.21 185.654C1788.85 207.601 1784.67 232.16 1784.67 259.332C1784.67 286.504 1789.02 311.237 1797.73 333.532C1806.44 355.479 1819.33 372.896 1836.4 385.786ZM1958.15 338.757C1949.09 346.77 1936.55 350.776 1920.53 350.776C1905.55 350.776 1893.01 346.595 1882.9 338.235C1873.15 329.874 1865.84 318.727 1860.96 304.793C1856.43 290.51 1854.16 275.356 1854.16 259.332C1854.16 242.262 1856.43 226.935 1860.96 213.349C1865.84 199.415 1873.15 188.441 1882.9 180.429C1893.01 172.068 1905.55 167.888 1920.53 167.888C1936.2 167.888 1948.74 171.894 1958.15 179.907C1967.56 187.919 1974.35 198.892 1978.53 212.826C1983.06 226.412 1985.32 241.914 1985.32 259.332C1985.32 275.705 1983.06 291.032 1978.53 305.315C1974.35 319.249 1967.56 330.397 1958.15 338.757Z" fill="#110F18"/>
<path fill-rule="evenodd" clip-rule="evenodd" d="M394.146 36.1711C447.71 -15.2626 567.915 -17.678 504.659 113.168C504.659 113.168 516.54 126.561 524.007 137.478C526 141.936 523.275 145.987 520.314 150.388C516.919 155.434 513.215 160.94 515.965 168.047C520.071 178.657 526.533 189.043 533.957 200.975C543.312 216.01 554.194 233.499 563.811 256.983C581.061 299.105 556.78 364.259 533.462 402.073C493.522 463.968 427.381 439.315 373.122 412.639C365.454 408.869 356.172 412.315 352.948 420.228L324.062 491.13C319.48 502.374 307.646 508.951 295.971 505.614C213.724 482.106 73.9305 399.169 1.79577 221.693C-3.51539 208.626 3.47058 193.871 15.9641 187.323C29.842 180.05 46.8625 169.167 57.9415 155.246C57.9415 155.246 -8.56319 47.791 65.6885 10.2754C112.795 -10.4004 160.509 4.43189 185.322 17.2412C188.115 18.5121 190.571 19.6622 192.774 20.6935C209.4 28.4788 211.576 29.4976 234.772 24.61C292.146 11.5286 351.481 18.3307 394.146 36.1711ZM409.531 174.893C418.096 198.532 428.765 225.823 438.152 243.437C443.385 253.257 453.495 258.87 464.549 260.148C512.534 265.698 527.577 261.242 537.032 256.932C541.301 254.985 543.619 250.167 541.008 246.269C541.008 246.269 503.778 184.281 485.372 160.115C484.926 159.462 484.476 158.808 484.026 158.155C474.307 144.029 464.728 130.107 495.527 130.659C406.217 38.2478 324.436 23.4316 229.373 44.2845C210.887 47.9171 200.796 45.2532 181.665 35.6468C161.241 25.3142 132.18 13.609 94.6434 20.228C121.352 37.6738 143.485 65.1044 158.956 89.0365C178.373 119.071 211.294 141.132 246.96 138.48L340.164 131.548C369.247 129.385 399.596 147.474 409.531 174.893ZM413.664 43.4091C425.083 33.1149 461.737 14.5275 489.618 24.3424C474.364 25.0582 464.03 31.8662 454.685 38.0227C442.317 46.171 431.681 53.178 413.664 43.4091ZM59.6275 227.135C54.0577 208.194 40.0205 188.934 16.4567 208.139C64.5936 333.975 149.866 401.058 149.866 401.058C104.463 353.407 74.8852 272.411 59.6275 227.135ZM393.008 332.945C326.531 335.599 282.375 334.222 258.881 313.605C432.95 238.16 510.083 287.442 510.083 331.804C510.155 374.329 475.603 386.848 428.532 384.344C381.461 381.84 335.77 364.297 313.517 349.232C313.517 349.232 362.783 349.786 393.008 332.945ZM552.693 286.376C543.294 292.95 532.658 309.664 529.403 330.172C515.269 413.641 559.407 331.067 552.693 286.376ZM519.562 389.969C490.641 445.207 417.801 412.268 381.257 392.854C434.496 406.064 480.733 401.444 511.742 387.581C514.03 386.558 516.725 387.022 518.463 388.828L519.562 389.969ZM212.767 158.428L283.44 154.179C290.542 153.752 297.007 158.391 301.978 163.481C311.718 173.456 336.911 184.195 381.371 182.479C387.372 182.247 393.182 185.23 396.099 190.48C415.164 234.398 400.739 250.742 310.768 275.42C144.758 320.954 76.5836 168.556 212.767 158.428Z" fill="url(#paint0_linear_434_309)"/>
<defs>
<linearGradient id="paint0_linear_434_309" x1="546.204" y1="5.38444e-06" x2="66.252" y2="562.966" gradientUnits="userSpaceOnUse">
<stop stop-color="#FF9E00"/>
<stop offset="1" stop-color="#FF6B3B"/>
</linearGradient>
</defs>
</svg>
