<svg width="1440" height="1106" viewBox="0 0 1440 1106" fill="none" xmlns="http://www.w3.org/2000/svg">
<g clip-path="url(#clip0_10382_11080)">
<rect width="1440" height="1106" fill="#F7F7F7"/>
<g filter="url(#filter0_f_10382_11080)">
<rect x="478" y="140" width="267" height="267" fill="#0CC696"/>
</g>
<g filter="url(#filter1_f_10382_11080)">
<circle cx="745" cy="203" r="102" fill="#5C00FF"/>
</g>
<g filter="url(#filter2_f_10382_11080)">
<circle cx="792" cy="373" r="141" fill="#0046DD"/>
</g>
<g filter="url(#filter3_f_10382_11080)">
<path d="M883.5 407L997.382 604.25H769.618L883.5 407Z" fill="#5C00FF"/>
</g>
<g filter="url(#filter4_f_10382_11080)">
<path d="M681.411 311.5L681.411 642.322L394.911 476.911L681.411 311.5Z" fill="#13B5EC"/>
</g>
<g filter="url(#filter5_f_10382_11080)">
<path d="M933 101L973.637 226.068L1105.14 226.068L998.752 303.364L1039.39 428.432L933 351.136L826.611 428.432L867.248 303.364L760.859 226.068L892.363 226.068L933 101Z" fill="#FFAE00"/>
</g>
<rect width="1440" height="1106" fill="url(#paint0_linear_10382_11080)"/>
<path d="M33.4148 1070.27L36.0057 1077.62H36.108L38.6989 1070.27H39.8068L36.6023 1079H35.5114L32.3068 1070.27H33.4148ZM43.1648 1079.14C42.5341 1079.14 41.9901 1079 41.5327 1078.72C41.0781 1078.44 40.7273 1078.05 40.4801 1077.54C40.2358 1077.04 40.1136 1076.45 40.1136 1075.78C40.1136 1075.11 40.2358 1074.52 40.4801 1074.01C40.7273 1073.49 41.071 1073.09 41.5114 1072.8C41.9545 1072.51 42.4716 1072.37 43.0625 1072.37C43.4034 1072.37 43.7401 1072.43 44.0724 1072.54C44.4048 1072.65 44.7074 1072.84 44.9801 1073.09C45.2528 1073.35 45.4702 1073.68 45.6321 1074.1C45.794 1074.52 45.875 1075.03 45.875 1075.64V1076.07H40.8295V1075.2H44.8523C44.8523 1074.83 44.7784 1074.5 44.6307 1074.21C44.4858 1073.92 44.2784 1073.69 44.0085 1073.52C43.7415 1073.36 43.4261 1073.27 43.0625 1073.27C42.6619 1073.27 42.3153 1073.37 42.0227 1073.57C41.733 1073.77 41.5099 1074.02 41.3537 1074.34C41.1974 1074.65 41.1193 1074.99 41.1193 1075.35V1075.93C41.1193 1076.43 41.2045 1076.85 41.375 1077.19C41.5483 1077.53 41.7884 1077.79 42.0952 1077.97C42.402 1078.14 42.7585 1078.23 43.1648 1078.23C43.429 1078.23 43.6676 1078.2 43.8807 1078.12C44.0966 1078.05 44.2827 1077.93 44.4389 1077.78C44.5952 1077.63 44.7159 1077.44 44.8011 1077.21L45.7727 1077.48C45.6705 1077.81 45.4986 1078.1 45.2571 1078.35C45.0156 1078.6 44.7173 1078.79 44.3622 1078.93C44.0071 1079.07 43.608 1079.14 43.1648 1079.14ZM48.4105 1070.27V1079H47.4048V1070.27H48.4105ZM52.9116 1079.14C52.3207 1079.14 51.8022 1079 51.3562 1078.71C50.913 1078.43 50.5664 1078.04 50.3164 1077.53C50.0692 1077.03 49.9457 1076.44 49.9457 1075.76C49.9457 1075.08 50.0692 1074.48 50.3164 1073.98C50.5664 1073.47 50.913 1073.07 51.3562 1072.79C51.8022 1072.51 52.3207 1072.37 52.9116 1072.37C53.5025 1072.37 54.0195 1072.51 54.4627 1072.79C54.9087 1073.07 55.2553 1073.47 55.5025 1073.98C55.7525 1074.48 55.8775 1075.08 55.8775 1075.76C55.8775 1076.44 55.7525 1077.03 55.5025 1077.53C55.2553 1078.04 54.9087 1078.43 54.4627 1078.71C54.0195 1079 53.5025 1079.14 52.9116 1079.14ZM52.9116 1078.23C53.3604 1078.23 53.7298 1078.12 54.0195 1077.89C54.3093 1077.66 54.5238 1077.36 54.663 1076.98C54.8022 1076.61 54.8718 1076.2 54.8718 1075.76C54.8718 1075.32 54.8022 1074.92 54.663 1074.54C54.5238 1074.16 54.3093 1073.86 54.0195 1073.62C53.7298 1073.39 53.3604 1073.27 52.9116 1073.27C52.4627 1073.27 52.0934 1073.39 51.8036 1073.62C51.5138 1073.86 51.2994 1074.16 51.1602 1074.54C51.021 1074.92 50.9513 1075.32 50.9513 1075.76C50.9513 1076.2 51.021 1076.61 51.1602 1076.98C51.2994 1077.36 51.5138 1077.66 51.8036 1077.89C52.0934 1078.12 52.4627 1078.23 52.9116 1078.23ZM57.4126 1079V1072.45H58.3842V1073.44H58.4524C58.5717 1073.12 58.7876 1072.86 59.1001 1072.65C59.4126 1072.45 59.7649 1072.35 60.157 1072.35C60.2308 1072.35 60.3232 1072.35 60.4339 1072.36C60.5447 1072.36 60.6286 1072.36 60.6854 1072.37V1073.39C60.6513 1073.38 60.5732 1073.37 60.451 1073.35C60.3317 1073.33 60.2053 1073.32 60.0717 1073.32C59.7536 1073.32 59.4695 1073.39 59.2195 1073.52C58.9723 1073.65 58.7763 1073.84 58.6314 1074.07C58.4893 1074.3 58.4183 1074.56 58.4183 1074.86V1079H57.4126ZM63.8036 1079.15C63.3888 1079.15 63.0124 1079.08 62.6744 1078.92C62.3363 1078.76 62.0678 1078.53 61.869 1078.23C61.6701 1077.93 61.5707 1077.57 61.5707 1077.14C61.5707 1076.77 61.6445 1076.46 61.7923 1076.23C61.94 1075.99 62.1374 1075.81 62.3846 1075.68C62.6317 1075.54 62.9045 1075.44 63.2028 1075.38C63.5039 1075.31 63.8065 1075.26 64.1104 1075.22C64.5082 1075.16 64.8306 1075.13 65.0778 1075.1C65.3278 1075.07 65.5096 1075.03 65.6232 1074.96C65.7397 1074.89 65.7979 1074.78 65.7979 1074.62V1074.59C65.7979 1074.16 65.6829 1073.84 65.4528 1073.61C65.2255 1073.37 64.8803 1073.26 64.4173 1073.26C63.9371 1073.26 63.5607 1073.36 63.288 1073.57C63.0153 1073.78 62.8235 1074.01 62.7127 1074.24L61.7582 1073.9C61.9286 1073.51 62.1559 1073.2 62.44 1072.97C62.7269 1072.75 63.0394 1072.59 63.3775 1072.51C63.7184 1072.41 64.0536 1072.37 64.3832 1072.37C64.5934 1072.37 64.8349 1072.39 65.1076 1072.45C65.3832 1072.49 65.6488 1072.6 65.9045 1072.75C66.163 1072.9 66.3775 1073.13 66.5479 1073.44C66.7184 1073.75 66.8036 1074.17 66.8036 1074.69V1079H65.7979V1078.11H65.7468C65.6786 1078.26 65.565 1078.41 65.4059 1078.57C65.2468 1078.73 65.0352 1078.87 64.771 1078.98C64.5067 1079.1 64.1843 1079.15 63.8036 1079.15ZM63.957 1078.25C64.3548 1078.25 64.69 1078.17 64.9627 1078.02C65.2383 1077.86 65.4457 1077.66 65.5849 1077.41C65.7269 1077.16 65.7979 1076.9 65.7979 1076.63V1075.71C65.7553 1075.76 65.6616 1075.81 65.5167 1075.85C65.3746 1075.89 65.2099 1075.93 65.0224 1075.96C64.8377 1075.99 64.6573 1076.01 64.4812 1076.03C64.3079 1076.05 64.1673 1076.07 64.0593 1076.09C63.7979 1076.12 63.5536 1076.17 63.3263 1076.25C63.1019 1076.33 62.9201 1076.44 62.7809 1076.59C62.6445 1076.74 62.5763 1076.94 62.5763 1077.19C62.5763 1077.54 62.7056 1077.81 62.9641 1077.99C63.2255 1078.16 63.5565 1078.25 63.957 1078.25ZM74.0938 1074.64C74.0938 1074.17 74.2074 1073.75 74.4347 1073.36C74.6619 1072.98 74.9673 1072.67 75.3509 1072.45C75.7344 1072.22 76.1591 1072.11 76.625 1072.11C77.0284 1072.11 77.4006 1072.19 77.7415 1072.37C78.0852 1072.54 78.3693 1072.78 78.5938 1073.08C78.8182 1073.37 78.9574 1073.71 79.0114 1074.09H77.9801C77.9233 1073.8 77.7656 1073.56 77.5071 1073.38C77.2486 1073.19 76.9545 1073.09 76.625 1073.09C76.3409 1073.09 76.0824 1073.16 75.8494 1073.3C75.6165 1073.44 75.4304 1073.63 75.2912 1073.86C75.152 1074.09 75.0824 1074.35 75.0824 1074.64C75.0824 1074.92 75.152 1075.18 75.2912 1075.41C75.4304 1075.64 75.6165 1075.83 75.8494 1075.97C76.0824 1076.11 76.3409 1076.18 76.625 1076.18C76.9545 1076.18 77.233 1076.09 77.4602 1075.9C77.6903 1075.71 77.8352 1075.47 77.8949 1075.18H78.9261C78.8722 1075.56 78.7401 1075.9 78.5298 1076.2C78.3196 1076.5 78.0497 1076.73 77.7202 1076.91C77.3935 1077.08 77.0284 1077.17 76.625 1077.17C76.1591 1077.17 75.7344 1077.05 75.3509 1076.83C74.9673 1076.6 74.6619 1076.29 74.4347 1075.91C74.2074 1075.53 74.0938 1075.1 74.0938 1074.64ZM76.5824 1079.14C75.9631 1079.14 75.3807 1079.02 74.8352 1078.79C74.2926 1078.55 73.8139 1078.23 73.3991 1077.82C72.9872 1077.4 72.6634 1076.93 72.4276 1076.38C72.1946 1075.84 72.0795 1075.26 72.0824 1074.64C72.0852 1074.01 72.2031 1073.43 72.4361 1072.89C72.6719 1072.35 72.9957 1071.87 73.4077 1071.46C73.8196 1071.04 74.2969 1070.72 74.8395 1070.49C75.3821 1070.25 75.9631 1070.14 76.5824 1070.14C77.2045 1070.14 77.7869 1070.25 78.3295 1070.49C78.875 1070.72 79.3523 1071.04 79.7614 1071.46C80.1733 1071.87 80.4957 1072.35 80.7287 1072.89C80.9616 1073.43 81.0795 1074.01 81.0824 1074.64C81.0852 1075.26 80.9702 1075.84 80.7372 1076.38C80.5043 1076.93 80.1818 1077.4 79.7699 1077.82C79.358 1078.23 78.8793 1078.55 78.3338 1078.79C77.7884 1079.02 77.2045 1079.14 76.5824 1079.14ZM76.5824 1078.15C77.0682 1078.15 77.5241 1078.06 77.9503 1077.88C78.3764 1077.69 78.75 1077.44 79.071 1077.12C79.392 1076.8 79.6435 1076.43 79.8253 1076C80.0071 1075.58 80.0966 1075.12 80.0938 1074.64C80.0909 1074.15 79.9986 1073.7 79.8168 1073.27C79.6349 1072.85 79.3835 1072.47 79.0625 1072.15C78.7415 1071.83 78.3693 1071.58 77.946 1071.4C77.5227 1071.22 77.0682 1071.12 76.5824 1071.12C76.0994 1071.12 75.6463 1071.22 75.223 1071.4C74.7997 1071.58 74.4276 1071.83 74.1065 1072.16C73.7855 1072.48 73.5327 1072.85 73.348 1073.28C73.1662 1073.7 73.0739 1074.15 73.071 1074.64C73.0682 1075.12 73.1577 1075.57 73.3395 1076C73.5213 1076.42 73.7727 1076.8 74.0938 1077.12C74.4176 1077.44 74.7912 1077.69 75.2145 1077.88C75.6406 1078.06 76.0966 1078.15 76.5824 1078.15Z" fill="#62626F"/>
<path d="M702.619 208L698.81 211.81L695 208" stroke="#62626F" stroke-linecap="round" stroke-linejoin="round"/>
</g>
<defs>
<filter id="filter0_f_10382_11080" x="218" y="-120" width="787" height="787" filterUnits="userSpaceOnUse" color-interpolation-filters="sRGB">
<feFlood flood-opacity="0" result="BackgroundImageFix"/>
<feBlend mode="normal" in="SourceGraphic" in2="BackgroundImageFix" result="shape"/>
<feGaussianBlur stdDeviation="130" result="effect1_foregroundBlur_10382_11080"/>
</filter>
<filter id="filter1_f_10382_11080" x="383" y="-159" width="724" height="724" filterUnits="userSpaceOnUse" color-interpolation-filters="sRGB">
<feFlood flood-opacity="0" result="BackgroundImageFix"/>
<feBlend mode="normal" in="SourceGraphic" in2="BackgroundImageFix" result="shape"/>
<feGaussianBlur stdDeviation="130" result="effect1_foregroundBlur_10382_11080"/>
</filter>
<filter id="filter2_f_10382_11080" x="391" y="-28" width="802" height="802" filterUnits="userSpaceOnUse" color-interpolation-filters="sRGB">
<feFlood flood-opacity="0" result="BackgroundImageFix"/>
<feBlend mode="normal" in="SourceGraphic" in2="BackgroundImageFix" result="shape"/>
<feGaussianBlur stdDeviation="130" result="effect1_foregroundBlur_10382_11080"/>
</filter>
<filter id="filter3_f_10382_11080" x="509.618" y="147" width="747.765" height="717.25" filterUnits="userSpaceOnUse" color-interpolation-filters="sRGB">
<feFlood flood-opacity="0" result="BackgroundImageFix"/>
<feBlend mode="normal" in="SourceGraphic" in2="BackgroundImageFix" result="shape"/>
<feGaussianBlur stdDeviation="130" result="effect1_foregroundBlur_10382_11080"/>
</filter>
<filter id="filter4_f_10382_11080" x="134.911" y="51.5" width="806.5" height="850.821" filterUnits="userSpaceOnUse" color-interpolation-filters="sRGB">
<feFlood flood-opacity="0" result="BackgroundImageFix"/>
<feBlend mode="normal" in="SourceGraphic" in2="BackgroundImageFix" result="shape"/>
<feGaussianBlur stdDeviation="130" result="effect1_foregroundBlur_10382_11080"/>
</filter>
<filter id="filter5_f_10382_11080" x="500.859" y="-159" width="864.282" height="847.432" filterUnits="userSpaceOnUse" color-interpolation-filters="sRGB">
<feFlood flood-opacity="0" result="BackgroundImageFix"/>
<feBlend mode="normal" in="SourceGraphic" in2="BackgroundImageFix" result="shape"/>
<feGaussianBlur stdDeviation="130" result="effect1_foregroundBlur_10382_11080"/>
</filter>
<linearGradient id="paint0_linear_10382_11080" x1="772.5" y1="1106" x2="772.5" y2="6.19748e-07" gradientUnits="userSpaceOnUse">
<stop stop-color="#EAE9ED" stop-opacity="0.8"/>
<stop offset="1" stop-color="white" stop-opacity="0.4"/>
</linearGradient>
<clipPath id="clip0_10382_11080">
<rect width="1440" height="1106" fill="white"/>
</clipPath>
</defs>
</svg>
